<svg width="180" height="180" viewBox="0 0 180 180" fill="none" xmlns="http://www.w3.org/2000/svg">
<rect width="180" height="180" rx="90" fill="#EADDFF"/>
<path fill-rule="evenodd" clip-rule="evenodd" d="M117.001 72C117.001 86.9117 104.913 99 90.0011 99C75.0894 99 63.0011 86.9117 63.0011 72C63.0011 57.0883 75.0894 45 90.0011 45C104.913 45 117.001 57.0883 117.001 72ZM108.001 72C108.001 81.9411 99.9422 90 90.0011 90C80.06 90 72.0011 81.9411 72.0011 72C72.0011 62.0589 80.06 54 90.0011 54C99.9422 54 108.001 62.0589 108.001 72Z" fill="#21005D"/>
<path d="M90.0011 112.5C60.8664 112.5 36.0428 129.728 26.5869 153.864C28.8904 156.152 31.317 158.315 33.8559 160.344C40.8972 138.185 62.9863 121.5 90.0011 121.5C117.016 121.5 139.105 138.185 146.146 160.344C148.685 158.315 151.112 156.152 153.415 153.864C143.959 129.728 119.136 112.5 90.0011 112.5Z" fill="#21005D"/>
</svg>
