<svg width="1000" height="366" viewBox="0 0 1000 366" fill="none" xmlns="http://www.w3.org/2000/svg">
<g clip-path="url(#clip0_2_144)">
<path fill-rule="evenodd" clip-rule="evenodd" d="M596.067 45.6142H205.377C202.275 45.6142 199.467 46.7484 197.434 48.5818C195.401 50.4159 194.144 52.9497 194.144 55.7485V297.219C194.144 300.016 195.401 302.55 197.435 304.385C199.468 306.218 202.276 307.353 205.377 307.353H596.067C599.169 307.353 601.978 306.219 604.01 304.385C606.043 302.551 607.3 300.018 607.3 297.219V55.7485C607.3 52.9512 606.043 50.4171 604.009 48.5826C601.976 46.7489 599.168 45.6142 596.067 45.6142Z" fill="white" stroke="#141C3A" stroke-width="8"/>
<path fill-rule="evenodd" clip-rule="evenodd" d="M576.818 68.0593H224.225C222.897 68.0593 221.694 68.5461 220.823 69.3336C219.953 70.12 219.414 71.2061 219.414 72.4059V252.324C219.414 253.524 219.953 254.61 220.823 255.397C221.693 256.184 222.896 256.671 224.225 256.671H576.818C578.146 256.671 579.349 256.184 580.22 255.396C581.09 254.61 581.629 253.524 581.629 252.324V72.4059C581.629 71.2059 581.09 70.1196 580.22 69.3333C579.35 68.546 578.146 68.0593 576.818 68.0593Z" fill="#6E07F3" stroke="#6E07F3" stroke-width="8"/>
<path fill-rule="evenodd" clip-rule="evenodd" d="M430.545 307.353H371.3L367.3 354.053H434.545L430.545 307.353Z" fill="white" stroke="#141C3A" stroke-width="8"/>
<path fill-rule="evenodd" clip-rule="evenodd" d="M458.884 364.552H342.961C342.85 364.552 342.75 364.512 342.677 364.446C342.604 364.38 342.559 364.288 342.559 364.187V359.303C342.559 357.853 343.21 356.541 344.263 355.591C345.316 354.641 346.771 354.053 348.378 354.053H453.467C455.074 354.053 456.529 354.641 457.582 355.591C458.635 356.541 459.286 357.853 459.286 359.303V364.187C459.286 364.288 459.242 364.38 459.169 364.446C459.096 364.512 458.995 364.552 458.884 364.552Z" fill="white" stroke="#141C3A" stroke-width="8"/>
<path d="M400.923 290.7C405.021 290.7 408.343 287.702 408.343 284.003C408.343 280.304 405.021 277.306 400.923 277.306C396.824 277.306 393.502 280.304 393.502 284.003C393.502 287.702 396.824 290.7 400.923 290.7Z" stroke="#141C3A" stroke-width="8"/>
<path d="M225.832 223.727H165.664C160.347 223.727 156.037 227.617 156.037 232.415V355.863C156.037 360.662 160.347 364.552 165.664 364.552H225.832C231.149 364.552 235.459 360.662 235.459 355.863V232.415C235.459 227.617 231.149 223.727 225.832 223.727Z" fill="white" stroke="#141C3A" stroke-width="8"/>
<path fill-rule="evenodd" clip-rule="evenodd" d="M235.459 239.656H156.037V343.664H235.459V239.656Z" fill="#141C3A" stroke="#141C3A" stroke-width="8"/>
<path d="M213.398 230.243H178.5C177.614 230.243 176.895 230.892 176.895 231.691C176.895 232.491 177.614 233.139 178.5 233.139H213.398C214.284 233.139 215.002 232.491 215.002 231.691C215.002 230.892 214.284 230.243 213.398 230.243Z" fill="#141C3A"/>
<path d="M200.481 353.836C200.481 351.557 198.434 349.709 195.909 349.709C193.383 349.709 191.336 351.557 191.336 353.836C191.336 356.115 193.383 357.963 195.909 357.963C198.434 357.963 200.481 356.115 200.481 353.836Z" fill="#141C3A"/>
<path d="M178.5 296.855C181.823 296.855 184.517 294.423 184.517 291.424C184.517 288.425 181.823 285.994 178.5 285.994C175.177 285.994 172.483 288.425 172.483 291.424C172.483 294.423 175.177 296.855 178.5 296.855Z" fill="#6E07F3" stroke="#6E07F3" stroke-width="8"/>
<path d="M219.013 282.012H194.144C193.257 282.012 192.539 282.66 192.539 283.46C192.539 284.26 193.257 284.908 194.144 284.908H219.013C219.899 284.908 220.618 284.26 220.618 283.46C220.618 282.66 219.899 282.012 219.013 282.012Z" fill="white"/>
<path d="M210.991 289.976H194.144C193.257 289.976 192.539 290.625 192.539 291.424C192.539 292.224 193.257 292.872 194.144 292.872H210.991C211.877 292.872 212.595 292.224 212.595 291.424C212.595 290.625 211.877 289.976 210.991 289.976Z" fill="white"/>
<path d="M202.968 297.941H194.144C193.257 297.941 192.539 298.589 192.539 299.389C192.539 300.188 193.257 300.837 194.144 300.837H202.968C203.854 300.837 204.573 300.188 204.573 299.389C204.573 298.589 203.854 297.941 202.968 297.941Z" fill="white"/>
<path d="M115.323 292.148C149.328 292.148 176.895 267.269 176.895 236.579C176.895 205.888 149.328 181.009 115.323 181.009C81.3174 181.009 53.7505 205.888 53.7505 236.579C53.7505 267.269 81.3174 292.148 115.323 292.148Z" fill="#5BE9B9" stroke="#141C3A" stroke-width="8"/>
<path fill-rule="evenodd" clip-rule="evenodd" d="M778.183 169.424H503.807C500.706 169.424 497.899 170.559 495.867 172.393C493.836 174.227 492.579 176.761 492.579 179.561V339.211C492.579 342.008 493.836 344.543 495.868 346.378C497.9 348.212 500.707 349.347 503.807 349.347H778.183C781.284 349.347 784.091 348.213 786.122 346.378C788.154 344.544 789.41 342.01 789.41 339.211V179.561C789.41 176.763 788.153 174.229 786.121 172.394C784.089 170.559 781.283 169.424 778.183 169.424Z" fill="white" stroke="#141C3A" stroke-width="8"/>
<path fill-rule="evenodd" clip-rule="evenodd" d="M809.47 349.347H472.52C472.41 349.347 472.311 349.388 472.239 349.452C472.167 349.518 472.122 349.609 472.122 349.709V356.95C472.122 359.049 473.065 360.95 474.59 362.325C476.114 363.701 478.221 364.552 480.548 364.552H801.441C803.768 364.552 805.875 363.701 807.4 362.325C808.925 360.949 809.868 359.049 809.868 356.95V349.709C809.868 349.609 809.822 349.518 809.749 349.453C809.678 349.388 809.579 349.347 809.47 349.347Z" fill="white" stroke="#141C3A" stroke-width="8"/>
<path fill-rule="evenodd" clip-rule="evenodd" d="M663.173 349.51L618.254 349.51C619.036 351.369 620.349 352.991 622.026 354.226C624.167 355.804 626.902 356.75 629.881 356.75H651.546C654.525 356.75 657.259 355.804 659.401 354.226C661.077 352.99 662.391 351.368 663.173 349.51Z" fill="white" stroke="#141C3A" stroke-width="8"/>
<path d="M774.331 184.991H507.421C505.649 184.991 504.212 186.288 504.212 187.887V331.192C504.212 332.791 505.649 334.088 507.421 334.088H774.331C776.103 334.088 777.54 332.791 777.54 331.192V187.887C777.54 186.288 776.103 184.991 774.331 184.991Z" fill="#5BE9B9"/>
<path d="M391.897 73.1276C393.005 73.1276 393.903 72.3172 393.903 71.3175C393.903 70.3178 393.005 69.5074 391.897 69.5074C390.79 69.5074 389.892 70.3178 389.892 71.3175C389.892 72.3172 390.79 73.1276 391.897 73.1276Z" fill="#293347"/>
<path fill-rule="evenodd" clip-rule="evenodd" d="M459.286 21.359H280.385V178.837C280.385 180.838 281.283 182.647 282.735 183.957C284.187 185.267 286.194 186.077 288.411 186.077H451.26C453.477 186.077 455.483 185.267 456.936 183.957C458.388 182.646 459.286 180.837 459.286 178.837V21.359Z" fill="#141C3A" stroke="#141C3A" stroke-width="8"/>
<path fill-rule="evenodd" clip-rule="evenodd" d="M451.26 1.44807H288.411C286.194 1.44807 284.188 2.25856 282.736 3.56905C281.283 4.87954 280.385 6.69001 280.385 8.6898V18.4629H459.286V8.6898C459.286 6.6906 458.387 4.8801 456.935 3.56944C455.483 2.25891 453.476 1.44807 451.26 1.44807Z" fill="white" stroke="#141C3A" stroke-width="8"/>
<path d="M294.424 13.3947C296.418 13.3947 298.034 11.9359 298.034 10.1365C298.034 8.33707 296.418 6.87834 294.424 6.87834C292.431 6.87834 290.814 8.33707 290.814 10.1365C290.814 11.9359 292.431 13.3947 294.424 13.3947Z" fill="#141C3A"/>
<path d="M306.458 13.3947C308.452 13.3947 310.068 11.9359 310.068 10.1365C310.068 8.33707 308.452 6.87834 306.458 6.87834C304.464 6.87834 302.848 8.33707 302.848 10.1365C302.848 11.9359 304.464 13.3947 306.458 13.3947Z" fill="#6E07F3"/>
<path d="M318.492 13.3947C320.486 13.3947 322.102 11.9359 322.102 10.1365C322.102 8.33707 320.486 6.87834 318.492 6.87834C316.498 6.87834 314.882 8.33707 314.882 10.1365C314.882 11.9359 316.498 13.3947 318.492 13.3947Z" fill="#5BE9B9"/>
<path opacity="0.54" d="M305.255 124.172H301.243C300.357 124.172 299.639 124.82 299.639 125.62C299.639 126.42 300.357 127.068 301.243 127.068H305.255C306.141 127.068 306.859 126.42 306.859 125.62C306.859 124.82 306.141 124.172 305.255 124.172Z" fill="#535B6B"/>
<path opacity="0.54" d="M305.255 51.7685H301.243C300.357 51.7685 299.639 52.4169 299.639 53.2166C299.639 54.0164 300.357 54.6647 301.243 54.6647H305.255C306.141 54.6647 306.859 54.0164 306.859 53.2166C306.859 52.4169 306.141 51.7685 305.255 51.7685Z" fill="#535B6B"/>
<path fill-rule="evenodd" clip-rule="evenodd" d="M313.277 51.7685H324.107C324.994 51.7685 325.712 52.4169 325.712 53.2166C325.712 54.0164 324.994 54.6647 324.107 54.6647H313.277C312.391 54.6647 311.673 54.0164 311.673 53.2166C311.673 52.4169 312.391 51.7685 313.277 51.7685Z" fill="#6E07F3"/>
<path fill-rule="evenodd" clip-rule="evenodd" d="M331.328 51.7685H342.158C343.044 51.7685 343.763 52.4169 343.763 53.2166C343.763 54.0164 343.044 54.6647 342.158 54.6647H331.328C330.442 54.6647 329.723 54.0164 329.723 53.2166C329.723 52.4169 330.442 51.7685 331.328 51.7685Z" fill="#5BE9B9"/>
<path fill-rule="evenodd" clip-rule="evenodd" d="M349.378 51.7685H369.434C370.321 51.7685 371.039 52.4169 371.039 53.2166C371.039 54.0164 370.321 54.6647 369.434 54.6647H349.378C348.492 54.6647 347.774 54.0164 347.774 53.2166C347.774 52.4169 348.492 51.7685 349.378 51.7685Z" fill="#6E07F3"/>
<path fill-rule="evenodd" clip-rule="evenodd" d="M376.655 51.7685H406.338C407.224 51.7685 407.942 52.4169 407.942 53.2166C407.942 54.0164 407.224 54.6647 406.338 54.6647H376.655C375.768 54.6647 375.05 54.0164 375.05 53.2166C375.05 52.4169 375.768 51.7685 376.655 51.7685Z" fill="#6E07F3"/>
<path opacity="0.54" d="M305.255 66.2493H301.243C300.357 66.2493 299.639 66.8976 299.639 67.6973C299.639 68.4971 300.357 69.1454 301.243 69.1454H305.255C306.141 69.1454 306.859 68.4971 306.859 67.6973C306.859 66.8976 306.141 66.2493 305.255 66.2493Z" fill="#535B6B"/>
<path opacity="0.54" d="M305.255 80.73H301.243C300.357 80.73 299.639 81.3783 299.639 82.178C299.639 82.9778 300.357 83.6261 301.243 83.6261H305.255C306.141 83.6261 306.859 82.9778 306.859 82.178C306.859 81.3783 306.141 80.73 305.255 80.73Z" fill="#535B6B"/>
<path opacity="0.54" d="M305.255 95.2107H301.243C300.357 95.2107 299.639 95.859 299.639 96.6587C299.639 97.4585 300.357 98.1068 301.243 98.1068H305.255C306.141 98.1068 306.859 97.4585 306.859 96.6587C306.859 95.859 306.141 95.2107 305.255 95.2107Z" fill="#535B6B"/>
<path opacity="0.54" d="M305.255 109.691H301.243C300.357 109.691 299.639 110.34 299.639 111.139C299.639 111.939 300.357 112.588 301.243 112.588H305.255C306.141 112.588 306.859 111.939 306.859 111.139C306.859 110.34 306.141 109.691 305.255 109.691Z" fill="#535B6B"/>
<path opacity="0.54" d="M305.255 138.653H301.243C300.357 138.653 299.639 139.301 299.639 140.101C299.639 140.901 300.357 141.549 301.243 141.549H305.255C306.141 141.549 306.859 140.901 306.859 140.101C306.859 139.301 306.141 138.653 305.255 138.653Z" fill="#535B6B"/>
<path opacity="0.54" d="M305.255 153.134H301.243C300.357 153.134 299.639 153.782 299.639 154.582C299.639 155.381 300.357 156.03 301.243 156.03H305.255C306.141 156.03 306.859 155.381 306.859 154.582C306.859 153.782 306.141 153.134 305.255 153.134Z" fill="#535B6B"/>
<path d="M338.147 66.2493H313.277C312.391 66.2493 311.673 66.8976 311.673 67.6973C311.673 68.4971 312.391 69.1454 313.277 69.1454H338.147C339.033 69.1454 339.751 68.4971 339.751 67.6973C339.751 66.8976 339.033 66.2493 338.147 66.2493Z" fill="#6E07F3"/>
<path d="M390.293 66.2493H345.367C344.481 66.2493 343.763 66.8976 343.763 67.6973C343.763 68.4971 344.481 69.1454 345.367 69.1454H390.293C391.179 69.1454 391.897 68.4971 391.897 67.6973C391.897 66.8976 391.179 66.2493 390.293 66.2493Z" fill="#5BE9B9"/>
<path d="M414.36 66.2493H397.513C396.627 66.2493 395.909 66.8976 395.909 67.6973C395.909 68.4971 396.627 69.1454 397.513 69.1454H414.36C415.246 69.1454 415.965 68.4971 415.965 67.6973C415.965 66.8976 415.246 66.2493 414.36 66.2493Z" fill="#6E07F3"/>
<path d="M330.124 80.73H313.277C312.391 80.73 311.673 81.3783 311.673 82.178C311.673 82.9778 312.391 83.6261 313.277 83.6261H330.124C331.01 83.6261 331.729 82.9778 331.729 82.178C331.729 81.3783 331.01 80.73 330.124 80.73Z" fill="#5BE9B9"/>
<path d="M354.192 80.73H337.345C336.458 80.73 335.74 81.3783 335.74 82.178C335.74 82.9778 336.458 83.6261 337.345 83.6261H354.192C355.078 83.6261 355.796 82.9778 355.796 82.178C355.796 81.3783 355.078 80.73 354.192 80.73Z" fill="#6E07F3"/>
<path d="M370.237 80.73H361.412C360.526 80.73 359.807 81.3783 359.807 82.178C359.807 82.9778 360.526 83.6261 361.412 83.6261H370.237C371.123 83.6261 371.841 82.9778 371.841 82.178C371.841 81.3783 371.123 80.73 370.237 80.73Z" fill="#6E07F3"/>
<path d="M350.18 95.2107H313.277C312.391 95.2107 311.673 95.859 311.673 96.6587C311.673 97.4585 312.391 98.1068 313.277 98.1068H350.18C351.067 98.1068 351.785 97.4585 351.785 96.6587C351.785 95.859 351.067 95.2107 350.18 95.2107Z" fill="#6E07F3"/>
<path d="M382.27 95.2107H357.401C356.515 95.2107 355.796 95.859 355.796 96.6587C355.796 97.4585 356.515 98.1068 357.401 98.1068H382.27C383.156 98.1068 383.875 97.4585 383.875 96.6587C383.875 95.859 383.156 95.2107 382.27 95.2107Z" fill="#6E07F3"/>
<path d="M350.18 109.691H313.277C312.391 109.691 311.673 110.34 311.673 111.139C311.673 111.939 312.391 112.588 313.277 112.588H350.18C351.067 112.588 351.785 111.939 351.785 111.139C351.785 110.34 351.067 109.691 350.18 109.691Z" fill="#6E07F3"/>
<path d="M406.338 109.691H357.401C356.515 109.691 355.796 110.34 355.796 111.139C355.796 111.939 356.515 112.588 357.401 112.588H406.338C407.224 112.588 407.942 111.939 407.942 111.139C407.942 110.34 407.224 109.691 406.338 109.691Z" fill="#5BE9B9"/>
<path d="M338.147 124.172H313.277C312.391 124.172 311.673 124.82 311.673 125.62C311.673 126.42 312.391 127.068 313.277 127.068H338.147C339.033 127.068 339.751 126.42 339.751 125.62C339.751 124.82 339.033 124.172 338.147 124.172Z" fill="#6E07F3"/>
<path d="M370.237 124.172H345.367C344.481 124.172 343.763 124.82 343.763 125.62C343.763 126.42 344.481 127.068 345.367 127.068H370.237C371.123 127.068 371.841 126.42 371.841 125.62C371.841 124.82 371.123 124.172 370.237 124.172Z" fill="#5BE9B9"/>
<path d="M390.293 124.172H377.457C376.571 124.172 375.852 124.82 375.852 125.62C375.852 126.42 376.571 127.068 377.457 127.068H390.293C391.179 127.068 391.897 126.42 391.897 125.62C391.897 124.82 391.179 124.172 390.293 124.172Z" fill="#6E07F3"/>
<path d="M362.214 138.653H313.277C312.391 138.653 311.673 139.301 311.673 140.101C311.673 140.901 312.391 141.549 313.277 141.549H362.214C363.1 141.549 363.819 140.901 363.819 140.101C363.819 139.301 363.1 138.653 362.214 138.653Z" fill="#6E07F3"/>
<path d="M334.136 153.134H313.277C312.391 153.134 311.673 153.782 311.673 154.582C311.673 155.381 312.391 156.03 313.277 156.03H334.136C335.022 156.03 335.74 155.381 335.74 154.582C335.74 153.782 335.022 153.134 334.136 153.134Z" fill="#5BE9B9"/>
<path fill-rule="evenodd" clip-rule="evenodd" d="M859.206 132.137H639.39V273.322C639.39 276.122 640.648 278.657 642.681 280.491C644.714 282.325 647.523 283.46 650.626 283.46H847.971C851.074 283.46 853.883 282.325 855.915 280.492C857.949 278.657 859.206 276.122 859.206 273.322V132.137Z" fill="white" stroke="#141C3A" stroke-width="8"/>
<path fill-rule="evenodd" clip-rule="evenodd" d="M847.971 114.036H650.626C647.522 114.036 644.714 115.17 642.681 117.003C640.647 118.837 639.39 121.371 639.39 124.17V135.033H859.206V124.17C859.206 121.371 857.948 118.837 855.915 117.003C853.882 115.17 851.073 114.036 847.971 114.036Z" fill="#141C3A" stroke="#141C3A" stroke-width="8"/>
<path d="M656.639 127.792C658.632 127.792 660.249 126.334 660.249 124.534C660.249 122.735 658.632 121.276 656.639 121.276C654.645 121.276 653.028 122.735 653.028 124.534C653.028 126.334 654.645 127.792 656.639 127.792Z" fill="white"/>
<path d="M668.672 127.792C670.666 127.792 672.282 126.334 672.282 124.534C672.282 122.735 670.666 121.276 668.672 121.276C666.678 121.276 665.062 122.735 665.062 124.534C665.062 126.334 666.678 127.792 668.672 127.792Z" fill="#6E07F3"/>
<path d="M680.706 127.792C682.7 127.792 684.316 126.334 684.316 124.534C684.316 122.735 682.7 121.276 680.706 121.276C678.712 121.276 677.096 122.735 677.096 124.534C677.096 126.334 678.712 127.792 680.706 127.792Z" fill="#5BE9B9"/>
<path d="M775.371 244C797.524 244 815.483 227.792 815.483 207.798C815.483 187.805 797.524 171.596 775.371 171.596C753.218 171.596 735.259 187.805 735.259 207.798C735.259 227.792 753.218 244 775.371 244Z" stroke="#6E07F3" stroke-width="9"/>
<path fill-rule="evenodd" clip-rule="evenodd" d="M780.586 167.252H770.959V175.941H780.586V167.252Z" fill="#FFFFFE" stroke="#5BE9B9" stroke-width="8"/>
<path fill-rule="evenodd" clip-rule="evenodd" d="M780.185 239.656H770.558V248.344H780.185V239.656Z" fill="#FFFFFE" stroke="#5BE9B9" stroke-width="8"/>
<path fill-rule="evenodd" clip-rule="evenodd" d="M740.072 203.816H730.445V212.504H740.072V203.816Z" fill="#FFFFFE" stroke="#5BE9B9" stroke-width="8"/>
<path d="M815.483 175.217V202.368" stroke="#141C3A" stroke-width="8" stroke-linecap="square"/>
<path d="M815.483 213.228V240.38" stroke="#141C3A" stroke-width="8" stroke-linecap="square"/>
<path d="M815.483 178.475C818.142 178.475 820.297 176.53 820.297 174.131C820.297 171.731 818.142 169.786 815.483 169.786C812.825 169.786 810.67 171.731 810.67 174.131C810.67 176.53 812.825 178.475 815.483 178.475Z" fill="#141C3A"/>
<path d="M815.483 247.258C818.142 247.258 820.297 245.313 820.297 242.914C820.297 240.515 818.142 238.57 815.483 238.57C812.825 238.57 810.67 240.515 810.67 242.914C810.67 245.313 812.825 247.258 815.483 247.258Z" fill="#141C3A"/>
<path fill-rule="evenodd" clip-rule="evenodd" d="M819.896 203.816H810.269V212.504H819.896V203.816Z" fill="#FFFFFE" stroke="#5BE9B9" stroke-width="8"/>
<path d="M700.361 162.546H681.909C679.251 162.546 677.096 164.491 677.096 166.89V183.543C677.096 185.942 679.251 187.887 681.909 187.887H700.361C703.019 187.887 705.174 185.942 705.174 183.543V166.89C705.174 164.491 703.019 162.546 700.361 162.546Z" fill="#141C3A"/>
<path d="M700.361 195.128H681.909C679.251 195.128 677.096 197.073 677.096 199.472V216.125C677.096 218.524 679.251 220.469 681.909 220.469H700.361C703.019 220.469 705.174 218.524 705.174 216.125V199.472C705.174 197.073 703.019 195.128 700.361 195.128Z" fill="#5BE9B9"/>
<path d="M700.361 227.709H681.909C679.251 227.709 677.096 229.654 677.096 232.053V248.706C677.096 251.105 679.251 253.05 681.909 253.05H700.361C703.019 253.05 705.174 251.105 705.174 248.706V232.053C705.174 229.654 703.019 227.709 700.361 227.709Z" fill="#6E07F3"/>
<path d="M974.328 351.519C987.62 351.519 998.396 341.794 998.396 329.798C998.396 317.802 987.62 308.077 974.328 308.077C961.036 308.077 950.261 317.802 950.261 329.798C950.261 341.794 961.036 351.519 974.328 351.519Z" fill="white" stroke="#141C3A" stroke-width="8"/>
<path d="M974.328 342.469C982.082 342.469 988.367 336.796 988.367 329.798C988.367 322.8 982.082 317.128 974.328 317.128C966.574 317.128 960.289 322.8 960.289 329.798C960.289 336.796 966.574 342.469 974.328 342.469Z" fill="white" stroke="#141C3A" stroke-width="8"/>
<path d="M942.238 304.095C946.669 304.095 950.261 300.853 950.261 296.855C950.261 292.856 946.669 289.614 942.238 289.614C937.808 289.614 934.216 292.856 934.216 296.855C934.216 300.853 937.808 304.095 942.238 304.095Z" fill="#FFFFFE" stroke="#141C3A" stroke-width="8"/>
<path fill-rule="evenodd" clip-rule="evenodd" d="M975.102 295.044H906.939C906.496 295.044 906.095 295.207 905.805 295.469C905.515 295.731 905.335 296.093 905.335 296.493V357.312C905.335 359.311 906.233 361.121 907.685 362.431C909.136 363.742 911.142 364.552 913.357 364.552H968.684C970.9 364.552 972.905 363.742 974.357 362.431C975.809 361.121 976.707 359.311 976.707 357.312V296.493C976.707 296.093 976.527 295.731 976.237 295.469C975.946 295.207 975.545 295.044 975.102 295.044Z" fill="white" stroke="#141C3A" stroke-width="8"/>
<path fill-rule="evenodd" clip-rule="evenodd" d="M957.08 314.593H942.639C941.753 314.593 940.951 314.918 940.37 315.442C939.79 315.966 939.43 316.69 939.43 317.49V334.866C939.43 335.666 939.79 336.39 940.37 336.914C940.951 337.438 941.753 337.763 942.639 337.763H957.08C957.966 337.763 958.768 337.438 959.349 336.914C959.93 336.39 960.289 335.666 960.289 334.866V317.49C960.289 316.69 959.93 315.966 959.349 315.442C958.768 314.918 957.966 314.593 957.08 314.593Z" fill="#5BE9B9" stroke="#141C3A" stroke-width="8"/>
<path d="M949.659 295.588V312.059" stroke="#141C3A" stroke-width="8" stroke-linecap="square"/>
<path fill-rule="evenodd" clip-rule="evenodd" d="M859.607 344.713C853.094 344.713 847.197 347.096 842.929 350.948C839.032 354.465 836.492 359.207 836.08 364.48H883.134C882.721 359.207 880.182 354.465 876.285 350.948C872.016 347.096 866.12 344.713 859.607 344.713Z" fill="white" stroke="#141C3A" stroke-width="8.4"/>
<path d="M861.211 346.451C861.211 345.651 860.493 345.003 859.607 345.003C858.721 345.003 858.002 345.651 858.002 346.451V348.261C858.002 349.061 858.721 349.709 859.607 349.709C860.493 349.709 861.211 349.061 861.211 348.261V346.451Z" fill="#141C3A"/>
<path fill-rule="evenodd" clip-rule="evenodd" d="M122.343 321.834H25.271C18.7356 321.834 12.819 324.225 8.53624 328.09C4.25345 331.955 1.60449 337.295 1.60449 343.193C1.60449 349.091 4.25345 354.431 8.53624 358.296C12.819 362.162 18.7356 364.552 25.271 364.552H122.343C123.007 364.552 123.609 364.309 124.044 363.916C124.48 363.523 124.749 362.98 124.749 362.38V359.018C124.749 358.258 124.424 357.563 123.889 357.044C123.353 356.526 122.608 356.183 121.768 356.129C116.215 355.773 112.088 354.501 109.32 352.434C106.404 350.255 104.893 347.192 104.893 343.193C104.893 339.189 106.408 336.095 109.357 333.864C112.145 331.756 116.306 330.418 121.921 329.962C122.724 329.876 123.43 329.526 123.936 329.014C124.443 328.5 124.749 327.823 124.749 327.086V324.006C124.749 323.406 124.48 322.863 124.044 322.47C123.609 322.077 123.007 321.834 122.343 321.834Z" fill="#6E07F3" stroke="#141C3A" stroke-width="8"/>
<path fill-rule="evenodd" clip-rule="evenodd" d="M117.443 330.16H24.8696C20.882 330.16 17.2719 331.619 14.6587 333.977C12.0455 336.336 10.4292 339.594 10.4292 343.193C10.4292 346.792 12.0455 350.05 14.6587 352.408C17.2719 354.767 20.882 356.226 24.8696 356.226C68.5504 356.226 99.6102 356.301 118.049 356.451C114.822 355.664 111.12 354.55 108.492 352.113C106.381 350.156 104.893 347.37 104.893 343.193C104.893 338.976 106.409 336.18 108.551 334.229C111.011 331.991 114.391 330.899 117.443 330.16Z" fill="white" stroke="#141C3A" stroke-width="8"/>
<path fill-rule="evenodd" clip-rule="evenodd" d="M23.2351 346.451H104.322C105.192 346.451 105.897 347.099 105.897 347.899C105.897 348.699 105.192 349.347 104.322 349.347H23.2351C22.3656 349.347 21.6606 348.699 21.6606 347.899C21.6606 347.099 22.3656 346.451 23.2351 346.451Z" fill="#141C3A"/>
<path fill-rule="evenodd" clip-rule="evenodd" d="M23.2351 337.039H104.322C105.192 337.039 105.897 337.687 105.897 338.487C105.897 339.286 105.192 339.935 104.322 339.935H23.2351C22.3656 339.935 21.6606 339.286 21.6606 338.487C21.6606 337.687 22.3656 337.039 23.2351 337.039Z" fill="#141C3A"/>
<path d="M100.343 249.559C98.3741 247.98 96.4056 246.4 94.437 244.821C91.2999 242.307 88.1718 239.784 85.0347 237.27C84.3156 236.698 83.5965 236.118 82.8864 235.545C82.8864 236.303 82.8864 237.069 82.8864 237.826C84.855 236.247 86.8235 234.667 88.7921 233.088C91.9291 230.573 95.0572 228.051 98.1943 225.537C98.9134 224.965 99.6325 224.384 100.343 223.812C101.044 223.248 101.035 222.096 100.343 221.532C99.5966 220.911 98.5539 220.927 97.7988 221.532C95.8303 223.111 93.8617 224.691 91.8932 226.27C88.7561 228.784 85.628 231.307 82.4909 233.821C81.7718 234.393 81.0527 234.973 80.3426 235.545C79.6505 236.102 79.6505 237.27 80.3426 237.826C82.3111 239.406 84.2797 240.985 86.2482 242.565C89.3853 245.079 92.5134 247.601 95.6505 250.115C96.3696 250.688 97.0887 251.268 97.7988 251.84C98.4999 252.404 99.6595 252.509 100.343 251.84C100.972 251.228 101.089 250.164 100.343 249.559Z" fill="#141C3A"/>
<path d="M130.319 223.816C132.288 225.395 134.256 226.975 136.225 228.554C139.362 231.069 142.49 233.591 145.627 236.105C146.346 236.678 147.065 237.258 147.775 237.83C147.775 237.072 147.775 236.307 147.775 235.549C145.807 237.129 143.838 238.708 141.87 240.288C138.733 242.802 135.605 245.324 132.468 247.839C131.748 248.411 131.029 248.991 130.319 249.563C129.618 250.127 129.627 251.28 130.319 251.844C131.065 252.464 132.108 252.448 132.863 251.844C134.832 250.264 136.8 248.685 138.769 247.105C141.906 244.591 145.034 242.069 148.171 239.554C148.89 238.982 149.609 238.402 150.319 237.83C151.011 237.274 151.011 236.105 150.319 235.549C148.351 233.97 146.382 232.39 144.414 230.811C141.277 228.297 138.148 225.774 135.011 223.26C134.292 222.688 133.573 222.108 132.863 221.535C132.162 220.971 131.002 220.867 130.319 221.535C129.69 222.148 129.573 223.212 130.319 223.816Z" fill="#141C3A"/>
<path d="M108.92 259.05C109.46 257.599 109.99 256.149 110.529 254.69C111.815 251.201 113.1 247.719 114.385 244.23C115.931 240.023 117.478 235.825 119.033 231.618C120.372 227.984 121.711 224.349 123.051 220.715C123.689 218.95 124.408 217.193 125.001 215.404C125.01 215.38 125.019 215.356 125.028 215.332C125.325 214.534 124.687 213.535 123.77 213.349C122.781 213.148 121.873 213.615 121.558 214.478C121.019 215.928 120.489 217.379 119.949 218.837C118.664 222.327 117.379 225.808 116.093 229.297C114.547 233.504 113.001 237.702 111.446 241.909C110.107 245.544 108.767 249.178 107.428 252.812C106.79 254.569 106.071 256.326 105.478 258.115C105.469 258.139 105.46 258.163 105.451 258.187C105.154 258.985 105.792 259.985 106.709 260.17C107.698 260.371 108.606 259.904 108.92 259.05Z" fill="#141C3A"/>
</g>
<defs>
<clipPath id="clip0_2_144">
<rect width="1000" height="366" fill="white"/>
</clipPath>
</defs>
</svg>
